<svg width="500" height="500" viewBox="0 0 500 500" fill="none" xmlns="http://www.w3.org/2000/svg">
<path d="M363.615 275C382.358 275 398.852 264.75 407.349 249.25L496.815 87C506.062 70.5 494.067 50 475.074 50H105.211L81.7197 0H0V50H49.9814L139.948 239.75L106.211 300.75C87.9673 334.25 111.958 375 149.944 375H449.833V325H149.944L177.434 275H363.615ZM128.952 100H432.589L363.615 225H188.18L128.952 100ZM149.944 400C122.455 400 100.213 422.5 100.213 450C100.213 477.5 122.455 500 149.944 500C177.434 500 199.926 477.5 199.926 450C199.926 422.5 177.434 400 149.944 400ZM399.852 400C372.362 400 350.12 422.5 350.12 450C350.12 477.5 372.362 500 399.852 500C427.341 500 449.833 477.5 449.833 450C449.833 422.5 427.341 400 399.852 400Z" fill="white" fill-opacity="0.8"/>
</svg>
