<svg width="500" height="500" viewBox="0 0 500 500" fill="none" xmlns="http://www.w3.org/2000/svg">
<path d="M250 0C111.914 0 0 111.914 0 250C0 355.957 65.918 446.387 158.887 482.812C156.738 462.988 154.688 432.715 159.766 411.133C164.355 391.602 189.063 286.914 189.063 286.914C189.063 286.914 181.543 271.973 181.543 249.805C181.543 215.039 201.66 189.063 226.758 189.063C248.047 189.063 258.398 205.078 258.398 224.316C258.398 245.801 244.727 277.832 237.695 307.52C231.836 332.422 250.195 352.734 274.707 352.734C319.141 352.734 353.32 305.859 353.32 238.281C353.32 178.418 310.352 136.523 248.926 136.523C177.832 136.523 136.035 189.844 136.035 245.02C136.035 266.504 144.336 289.551 154.687 302.051C156.738 304.492 157.031 306.738 156.445 309.18C154.59 317.09 150.293 334.082 149.512 337.5C148.438 342.09 145.898 343.066 141.113 340.82C109.863 326.27 90.332 280.664 90.332 243.945C90.332 165.039 147.656 92.6758 255.469 92.6758C342.188 92.6758 409.57 154.492 409.57 237.109C409.57 323.242 355.273 392.578 279.883 392.578C254.59 392.578 230.762 379.395 222.559 363.867C222.559 363.867 210.059 411.621 207.031 423.34C201.367 445.02 186.133 472.266 175.977 488.867C199.414 496.094 224.219 500 250 500C388.086 500 500 388.086 500 250C500 111.914 388.086 0 250 0Z" fill="white"/>
</svg>
