<svg width="500" height="500" viewBox="0 0 500 500" fill="none" xmlns="http://www.w3.org/2000/svg">
<path d="M250 62.5C284.375 62.5 312.5 90.625 312.5 125C312.5 159.375 284.375 187.5 250 187.5C215.625 187.5 187.5 159.375 187.5 125C187.5 90.625 215.625 62.5 250 62.5ZM250 343.75C334.375 343.75 431.25 384.063 437.5 406.25V437.5H62.5V406.563C68.75 384.063 165.625 343.75 250 343.75ZM250 0C180.937 0 125 55.9375 125 125C125 194.063 180.937 250 250 250C319.063 250 375 194.063 375 125C375 55.9375 319.063 0 250 0ZM250 281.25C166.562 281.25 0 323.125 0 406.25V500H500V406.25C500 323.125 333.438 281.25 250 281.25Z" fill="white" fill-opacity="0.8"/>
</svg>
